<?xml version="1.0" standalone="no"?>
<!DOCTYPE svg PUBLIC "-//W3C//DTD SVG 20010904//EN"
 "http://www.w3.org/TR/2001/REC-SVG-20010904/DTD/svg10.dtd">
<svg version="1.0" xmlns="http://www.w3.org/2000/svg"
 width="30px" height="30px" viewBox="0 0 600.000000 600.000000"
 preserveAspectRatio="xMidYMid meet">

<g transform="translate(0.000000,600.000000) scale(0.100000,-0.100000)"
fill="#000000" stroke="none">
<path d="M1465 5990 c-420 -15 -645 -76 -895 -243 -98 -66 -263 -231 -329
-332 -152 -232 -212 -450 -231 -839 -10 -215 -11 -2253 -1 -2523 l6 -162 95
56 c52 31 131 74 175 96 44 21 91 49 105 61 22 20 117 66 135 66 3 0 3 -6 0
-12 -4 -7 0 -5 9 6 8 10 20 15 26 11 11 -7 96 21 120 40 50 40 105 41 113 2 2
-12 5 320 6 738 2 973 11 1146 76 1370 59 204 153 364 294 506 142 141 302
235 506 294 236 68 446 78 1479 72 925 -6 987 -10 1236 -93 398 -132 675 -454
764 -888 36 -170 38 -242 43 -1086 5 -864 -2 -1116 -32 -1293 -84 -476 -367
-814 -804 -957 -50 -16 -120 -35 -155 -41 l-64 -12 41 -58 c22 -33 43 -59 47
-59 8 0 103 -140 106 -156 1 -6 16 -30 33 -54 17 -24 31 -49 31 -57 0 -7 4
-13 9 -13 5 0 12 -9 16 -19 3 -11 16 -35 29 -54 40 -58 84 -143 91 -175 3 -17
15 -42 26 -56 11 -14 26 -42 33 -63 l13 -38 77 -3 c154 -6 430 59 588 139 346
175 587 493 668 883 42 202 43 225 47 1826 5 1824 2 1929 -74 2189 -86 300
-273 551 -535 718 -218 139 -435 195 -832 213 -228 11 -2785 10 -3091 0z
m-1085 -3864 c0 -2 -8 -10 -17 -17 -16 -13 -17 -12 -4 4 13 16 21 21 21 13z"/>
<path d="M2175 4790 c-305 -14 -462 -54 -616 -156 -198 -131 -305 -335 -339
-649 -15 -140 -24 -1040 -14 -1400 5 -165 10 -285 12 -267 3 30 16 43 24 23 2
-4 61 -3 133 4 72 6 119 14 105 17 -14 3 -1 3 28 1 42 -4 52 -2 52 11 0 12 11
15 55 14 29 -1 52 -5 50 -8 -2 -4 46 -12 108 -19 157 -16 190 -22 206 -35 8
-6 39 -16 71 -21 l57 -11 -44 62 c-62 89 -130 237 -160 351 -25 90 -27 114
-27 288 0 174 2 198 27 288 117 434 470 756 912 834 130 22 337 13 468 -21
424 -110 758 -469 832 -895 19 -108 19 -307 0 -408 -66 -346 -288 -644 -600
-805 -103 -52 -252 -103 -340 -114 -39 -5 -53 -10 -40 -14 45 -13 168 -87 185
-110 3 -4 32 -29 65 -55 133 -108 383 -377 411 -444 12 -29 11 -30 -14 -34
-15 -2 18 -3 73 0 363 14 552 84 717 262 145 156 199 328 218 691 13 240 13
1420 0 1660 -20 381 -78 551 -244 715 -174 172 -339 226 -746 245 -233 11
-1382 11 -1625 0z m2112 -374 c176 -91 206 -313 60 -442 -51 -45 -102 -64
-172 -64 -70 0 -121 19 -172 64 -155 136 -109 380 84 452 48 18 157 13 200
-10z m-2870 -2048 c-17 -11 -79 -10 -73 1 3 5 23 8 45 7 22 0 34 -4 28 -8z"/>
<path d="M2860 3716 c-181 -39 -327 -129 -435 -271 -92 -121 -139 -243 -151
-395 -26 -310 176 -621 474 -730 363 -132 746 25 913 375 168 352 17 782 -336
955 -44 22 -107 47 -140 56 -84 22 -245 27 -325 10z"/>
</g>
</svg>
