<?xml version="1.0" standalone="no"?>
<!DOCTYPE svg PUBLIC "-//W3C//DTD SVG 20010904//EN"
 "http://www.w3.org/TR/2001/REC-SVG-20010904/DTD/svg10.dtd">
<svg version="1.0" xmlns="http://www.w3.org/2000/svg"
 width="30px" height="30px" viewBox="0 0 512.000000 512.000000"
 preserveAspectRatio="xMidYMid meet">

<g transform="translate(0.000000,512.000000) scale(0.100000,-0.100000)"
fill="#000000" stroke="none">
<path d="M3828 4489 c-298 -21 -602 -87 -1168 -254 -630 -186 -877 -249 -1124
-286 -196 -29 -400 -39 -561 -28 -324 21 -543 85 -878 257 -4 2 -6 -396 -5
-884 l3 -888 108 -54 c144 -72 331 -137 480 -167 462 -93 925 -38 1716 202
608 184 737 219 991 272 601 123 1090 79 1525 -139 l116 -58 -3 125 -3 125
-105 54 c-282 143 -562 208 -905 208 -355 0 -671 -57 -1235 -223 -113 -34
-209 -61 -213 -61 -4 0 -6 57 -5 127 l3 127 145 43 c354 106 635 175 875 214
165 26 515 37 666 20 228 -26 448 -90 649 -189 63 -31 118 -58 123 -60 4 -2 7
52 7 121 l0 125 -112 55 c-296 146 -568 207 -916 207 -365 0 -696 -64 -1357
-263 l-80 -24 -3 125 c-1 68 -1 127 1 129 9 8 419 126 587 168 321 81 523 112
775 122 357 13 681 -53 979 -201 l126 -62 0 122 0 123 -66 37 c-97 54 -289
130 -417 164 -473 126 -969 81 -1776 -160 -110 -33 -203 -60 -206 -60 -3 0 -5
57 -5 128 l0 127 203 59 c587 172 889 228 1237 228 356 1 629 -62 933 -213
l97 -49 0 125 0 126 -132 64 c-234 113 -465 175 -733 195 -153 11 -178 11
-337 -1z m-1474 -516 c6 2 22 8 36 12 l24 8 -27 -36 c-23 -31 -26 -40 -17 -58
15 -27 9 -32 -23 -20 -21 8 -29 6 -48 -15 -31 -33 -40 -30 -27 8 8 21 8 33 1
35 -6 2 -18 10 -29 17 -16 13 -15 14 15 21 31 7 36 13 57 70 6 17 8 16 17 -13
6 -18 15 -31 21 -29z m-2048 -38 c5 -28 13 -37 40 -47 41 -14 43 -24 8 -32
-26 -7 -26 -9 -6 -66 3 -8 -9 -2 -26 14 -25 23 -37 28 -61 23 -35 -7 -35 -7
-20 27 10 21 7 29 -16 60 -30 40 -28 43 15 21 29 -15 30 -14 36 10 9 35 22 31
30 -10z m1666 -68 l33 6 -23 -26 c-19 -20 -23 -32 -17 -56 7 -32 3 -35 -30
-21 -15 6 -27 1 -48 -19 l-29 -26 7 37 c6 33 4 38 -22 51 l-28 15 30 8 c41 9
53 20 61 57 l7 32 13 -32 c13 -30 17 -32 46 -26z m-1238 -89 c6 -4 22 -8 36
-8 l25 0 -29 -23 c-27 -22 -28 -26 -18 -55 10 -29 9 -31 -7 -23 -10 6 -23 17
-30 25 -12 14 -16 14 -42 0 -31 -16 -36 -9 -19 31 6 15 1 27 -19 48 l-26 29
37 -7 c35 -7 36 -6 44 27 l7 33 15 -35 c8 -19 19 -38 26 -42z m790 26 c6 -24
10 -26 43 -21 l36 6 -28 -29 c-24 -26 -26 -32 -17 -59 12 -35 7 -38 -27 -15
-21 15 -24 15 -53 -12 -33 -31 -32 -34 -13 34 4 13 -3 23 -22 32 l-28 14 37 9
c29 8 38 16 43 39 8 35 21 36 29 2z m-363 -64 l34 -5 -27 -18 c-23 -16 -26
-22 -17 -43 15 -41 11 -47 -19 -25 -28 19 -28 19 -59 0 l-31 -20 10 35 c10 32
9 36 -18 60 l-29 25 36 -6 c35 -5 37 -4 49 33 l13 39 12 -35 c10 -29 18 -36
46 -40z m973 25 c7 -28 13 -30 53 -14 l28 10 -30 -31 c-26 -28 -28 -33 -18
-60 12 -32 3 -39 -27 -20 -11 7 -24 1 -49 -23 l-34 -32 7 27 c3 14 8 33 11 40
4 9 -5 19 -22 27 l-28 14 35 12 c26 9 37 20 44 43 11 38 22 41 30 7z m-1621
-97 c3 -9 19 -19 36 -23 36 -8 40 -21 10 -30 -19 -6 -20 -12 -15 -48 l7 -42
-29 28 c-23 22 -35 27 -57 21 -26 -7 -27 -6 -20 26 6 27 2 37 -22 62 -15 17
-21 29 -13 26 58 -20 60 -20 71 9 10 26 12 27 19 8 5 -11 11 -27 13 -37z
m1256 -23 l36 7 -28 -30 c-24 -25 -27 -33 -18 -50 19 -35 13 -44 -17 -28 -26
14 -30 13 -60 -10 l-32 -26 10 27 c15 40 12 51 -17 65 l-28 13 38 10 c28 7 39
15 43 36 11 44 18 47 28 13 9 -32 11 -33 45 -27z m609 -11 l35 5 -27 -28 c-23
-24 -25 -31 -16 -56 13 -35 9 -39 -25 -23 -25 11 -29 10 -49 -15 -29 -36 -37
-34 -25 5 5 18 9 34 9 35 0 1 -12 9 -27 16 l-26 14 36 12 c20 7 37 16 37 21 0
5 5 21 11 37 l11 28 10 -29 c9 -26 14 -28 46 -22z m-1463 -24 c5 -24 13 -31
42 -36 l35 -7 -27 -21 c-23 -19 -25 -24 -16 -49 15 -40 15 -40 -19 -15 -30 21
-31 22 -60 4 -33 -19 -34 -18 -20 20 9 24 7 31 -17 57 l-28 30 37 -7 c34 -6
37 -5 43 24 8 38 22 38 30 0z m447 -30 l31 0 -22 -24 c-19 -20 -22 -31 -16
-57 l7 -33 -27 18 c-27 18 -28 17 -56 -3 -31 -23 -35 -18 -19 23 8 22 6 27
-21 43 l-31 18 38 5 c33 4 39 9 47 40 l10 35 13 -32 c12 -27 19 -33 46 -33z
m-1056 5 c5 -28 12 -36 40 -45 39 -13 44 -27 12 -32 -24 -3 -26 -15 -13 -58 7
-24 7 -24 -26 6 -28 26 -39 30 -61 24 -32 -9 -32 -9 -17 24 10 22 8 30 -15 61
-30 39 -28 42 14 20 29 -15 30 -14 36 10 9 35 22 31 30 -10z m1647 -72 c7 2
23 8 37 12 l25 7 -28 -30 c-24 -25 -28 -36 -22 -61 7 -34 4 -36 -27 -20 -17 9
-25 6 -50 -17 l-29 -29 7 42 c5 36 4 42 -15 48 -30 9 -26 19 11 30 25 8 34 18
41 45 l10 35 14 -33 c7 -19 19 -32 26 -29z m-1194 -91 l36 -9 -27 -13 c-30
-14 -33 -25 -18 -65 l10 -27 -32 26 c-30 23 -34 24 -60 10 -30 -16 -35 -9 -18
31 6 15 1 27 -19 49 l-26 29 33 -7 c31 -5 35 -3 45 25 l12 31 14 -35 c10 -28
21 -37 50 -45z m763 37 c10 -29 13 -30 47 -24 l36 7 -29 -31 c-26 -28 -28 -33
-17 -57 15 -35 9 -40 -24 -18 -25 16 -27 16 -50 -6 -30 -28 -39 -23 -25 15 9
23 7 30 -7 41 -10 7 -22 14 -26 14 -5 0 -5 5 -2 10 3 6 19 10 35 10 25 0 30 5
36 35 8 43 12 44 26 4z m-366 -59 c40 0 43 -12 9 -34 -21 -14 -23 -20 -15 -42
16 -41 12 -46 -20 -23 -27 20 -31 21 -47 7 -37 -31 -42 -30 -31 6 10 32 9 37
-18 60 l-29 25 38 1 c34 0 39 4 50 33 l11 32 9 -32 c9 -29 14 -33 43 -33z
m1025 0 c18 5 34 8 36 7 1 -2 -10 -16 -26 -31 -25 -24 -28 -32 -20 -54 12 -31
7 -37 -21 -22 -19 10 -26 8 -49 -14 -34 -33 -43 -33 -31 0 14 37 13 42 -17 58
l-28 15 34 7 c27 6 37 14 49 46 l15 39 13 -30 c12 -28 15 -29 45 -21z m-1667
-65 c6 -29 12 -35 41 -41 41 -7 45 -21 9 -30 -26 -7 -27 -16 -7 -71 4 -13 -2
-10 -25 10 -25 24 -36 28 -61 22 -30 -6 -31 -6 -21 21 9 22 7 31 -8 48 -34 38
-36 47 -7 36 38 -14 44 -13 51 15 9 35 21 31 28 -10z m1217 -14 c10 -27 13
-29 47 -24 l37 6 -28 -23 c-25 -20 -28 -28 -22 -56 6 -37 4 -39 -27 -23 -17 9
-25 6 -49 -17 -30 -29 -36 -23 -19 20 8 22 6 28 -17 43 l-26 17 34 11 c25 9
36 20 43 43 11 39 14 40 27 3z m609 -17 c0 -21 22 -27 56 -14 l29 11 -28 -29
c-24 -25 -28 -35 -22 -62 7 -32 6 -33 -20 -26 -22 6 -34 1 -56 -20 -30 -29
-36 -23 -19 21 8 22 7 27 -15 37 -33 15 -31 22 7 33 25 8 35 18 42 42 9 32 26
36 26 7z m-1378 -78 l33 -7 -23 -19 c-19 -16 -22 -26 -17 -50 7 -34 0 -38 -27
-13 -15 13 -23 14 -44 5 -35 -17 -36 -16 -29 19 6 27 3 35 -21 56 l-29 24 38
-5 c36 -5 39 -3 50 27 l11 32 12 -31 c10 -23 22 -33 46 -38z m405 7 c40 7 41
1 7 -25 -14 -11 -23 -25 -21 -32 2 -6 8 -22 12 -35 l7 -23 -30 17 c-29 18 -31
17 -62 -5 l-32 -23 7 24 c4 13 10 29 12 35 2 7 -8 21 -22 32 l-26 21 35 6 c27
6 37 14 47 38 l12 32 10 -34 c10 -31 13 -33 44 -28z m-1047 -19 c0 -7 17 -19
38 -27 l37 -15 -27 -11 c-31 -12 -33 -18 -18 -55 13 -34 4 -33 -26 3 -21 26
-28 28 -54 21 -33 -9 -37 -2 -19 31 8 16 5 26 -16 51 -29 34 -27 45 3 29 31
-17 41 -13 49 17 l6 27 13 -30 c7 -16 13 -35 14 -41z m1659 -39 l36 7 -28 -30
c-24 -25 -26 -32 -17 -57 13 -35 9 -39 -24 -24 -24 11 -30 9 -58 -17 -22 -21
-29 -24 -25 -11 20 54 19 63 -10 77 l-28 14 38 10 c20 5 37 13 37 17 0 4 5 20
11 36 l11 28 10 -28 c9 -27 13 -28 47 -22z m-1215 -98 l37 -9 -30 -19 c-28
-17 -30 -21 -21 -45 14 -36 5 -42 -24 -15 -20 19 -28 21 -44 12 -31 -16 -34
-14 -27 20 6 25 2 36 -21 60 l-27 29 34 -10 c19 -6 35 -10 35 -10 1 0 7 15 14
33 l12 32 12 -35 c10 -28 20 -36 50 -43z m812 12 l39 3 -28 -22 c-25 -20 -28
-28 -22 -56 7 -38 6 -39 -30 -22 -22 10 -29 8 -50 -12 -26 -25 -31 -17 -16 23
8 20 5 26 -22 43 l-32 19 37 3 c33 3 38 7 49 40 l12 37 13 -30 c11 -27 16 -29
50 -26z m-455 -9 c10 -26 16 -30 47 -30 l37 -1 -29 -23 c-26 -22 -28 -27 -18
-55 13 -36 10 -37 -23 -15 -23 15 -27 15 -51 -1 -32 -20 -38 -16 -24 19 9 24
6 30 -18 51 l-27 24 37 1 c32 0 37 3 43 30 4 17 9 30 11 30 3 0 10 -13 15 -30z
m1042 -27 c7 2 23 8 37 12 24 7 24 6 -6 -26 -27 -28 -30 -38 -23 -58 12 -30 8
-34 -22 -22 -20 7 -29 4 -52 -18 l-29 -26 7 37 c6 33 4 38 -21 51 l-28 15 31
6 c37 8 47 20 58 61 l8 30 14 -33 c7 -19 19 -32 26 -29z m-1649 -58 c6 -29 12
-37 37 -42 39 -8 44 -18 13 -32 -26 -11 -26 -14 -6 -71 3 -8 -9 -2 -26 14 -28
26 -34 27 -62 18 -33 -12 -33 -10 -13 43 2 6 -8 22 -22 35 -32 30 -32 42 1 30
37 -14 43 -13 50 15 9 35 21 31 28 -10z m1218 -15 c9 -28 13 -30 47 -24 l36 7
-29 -32 c-26 -27 -28 -33 -18 -56 17 -36 16 -37 -19 -19 -30 15 -32 15 -60
-12 -29 -28 -36 -20 -19 21 6 15 2 25 -18 41 l-26 21 36 7 c31 6 37 11 42 41
8 43 14 44 28 5z m657 -35 l36 7 -28 -30 c-24 -25 -26 -32 -17 -56 13 -37 14
-36 -20 -23 -27 10 -33 8 -61 -18 -23 -22 -30 -25 -26 -12 20 55 19 64 -8 71
-32 8 -25 22 15 31 17 4 30 10 30 15 0 5 5 21 11 37 l11 28 10 -28 c9 -27 13
-28 47 -22z m-1469 -24 c0 -26 20 -41 54 -41 l31 -1 -27 -17 c-31 -18 -33 -28
-18 -67 11 -28 3 -27 -33 3 -16 14 -21 14 -47 -2 -32 -18 -37 -11 -20 29 6 16
1 26 -23 48 l-32 28 38 -7 c35 -6 38 -4 48 25 11 32 29 33 29 2z m449 -31 l36
-1 -28 -23 c-25 -20 -27 -26 -17 -50 14 -38 14 -39 -20 -20 -26 16 -31 16 -47
2 -37 -31 -43 -31 -31 3 10 30 9 34 -18 56 l-29 23 38 0 c20 0 37 4 37 9 0 5
5 22 11 38 l12 28 10 -32 c9 -29 14 -33 46 -33z m-1055 5 c6 -28 14 -38 44
-51 l37 -17 -28 -10 c-17 -7 -26 -16 -22 -25 3 -8 8 -26 11 -40 6 -26 5 -26
-21 6 -24 30 -32 33 -61 27 l-33 -6 11 31 c9 26 7 35 -9 53 -37 41 -38 50 -3
32 34 -17 49 -10 50 23 0 27 18 10 24 -23z m1674 -60 l37 7 -28 -30 c-24 -25
-28 -36 -22 -61 6 -30 6 -31 -21 -21 -20 8 -31 7 -43 -3 -36 -31 -43 -31 -36
5 6 30 3 36 -22 48 l-28 13 37 9 c30 8 39 16 49 46 l12 35 14 -27 c13 -25 18
-27 51 -21z m-1244 -97 c6 -4 22 -8 36 -8 24 -1 24 -1 6 -15 -10 -8 -24 -16
-30 -18 -7 -2 -7 -14 1 -40 10 -33 10 -36 -6 -27 -10 5 -23 16 -30 24 -12 14
-16 14 -42 0 -31 -16 -36 -9 -19 31 6 15 1 27 -19 48 l-26 29 37 -7 c35 -7 36
-6 44 27 l7 33 15 -35 c8 -19 19 -38 26 -42z m788 32 c9 -28 13 -30 47 -24
l36 7 -28 -30 c-24 -26 -26 -33 -17 -57 14 -38 14 -38 -20 -21 -29 15 -32 15
-57 -5 -32 -25 -37 -21 -23 16 9 24 8 31 -6 41 -10 7 -21 13 -26 13 -4 0 -8 4
-8 9 0 6 14 11 32 13 27 2 34 9 42 36 5 17 11 32 13 32 2 0 9 -14 15 -30z
m-358 -60 l41 0 -32 -26 c-28 -22 -31 -28 -23 -50 16 -41 12 -46 -20 -23 -28
21 -31 21 -48 6 -27 -25 -34 -21 -27 13 5 24 2 34 -22 55 l-28 24 38 1 c24 0
39 5 42 15 16 49 18 50 28 18 9 -30 13 -33 51 -33z m1003 3 c39 7 41 -2 9 -32
-21 -19 -23 -27 -15 -48 12 -32 7 -38 -21 -23 -19 10 -26 8 -49 -14 -34 -33
-43 -33 -31 0 14 37 13 43 -15 56 -30 13 -25 23 14 31 23 5 32 14 42 44 l13
38 10 -28 c9 -26 14 -28 43 -24z m-1662 -65 c8 -23 19 -35 45 -44 l35 -11 -28
-14 c-29 -13 -30 -21 -11 -76 5 -12 -4 -8 -27 14 -25 24 -38 30 -49 23 -23
-15 -43 -12 -36 5 3 8 8 21 12 29 3 7 -8 28 -23 47 -15 18 -21 30 -13 27 53
-19 58 -19 64 7 9 34 20 32 31 -7z m1216 -17 c10 -27 13 -29 42 -20 44 13 44
13 12 -21 -26 -28 -28 -33 -18 -60 13 -34 13 -34 -21 -19 -20 10 -29 8 -55
-10 -17 -12 -31 -21 -31 -19 0 2 4 17 9 35 9 29 7 32 -22 44 l-32 13 40 12
c32 9 42 17 49 42 11 39 14 40 27 3z m609 -16 c0 -21 14 -25 50 -15 l33 10
-27 -29 c-23 -24 -27 -35 -21 -60 6 -30 6 -31 -25 -25 -24 5 -36 2 -55 -16
l-24 -23 6 36 c4 29 2 36 -16 42 -30 9 -26 21 11 31 24 7 34 17 40 42 8 31 28
36 28 7z m-1416 -57 c4 -13 16 -18 43 -18 l38 -1 -29 -23 c-24 -20 -27 -28
-21 -56 7 -30 6 -31 -13 -21 -12 6 -24 16 -27 22 -5 7 -15 5 -31 -5 -33 -22
-36 -20 -29 18 6 28 3 36 -20 55 l-28 21 37 0 c33 0 38 4 48 32 12 34 14 32
32 -24z m403 12 c10 -27 14 -29 45 -24 l33 7 -28 -30 c-24 -26 -26 -33 -17
-57 14 -37 14 -37 -19 -18 -29 16 -31 16 -62 -7 -26 -19 -31 -21 -26 -7 19 50
18 62 -7 76 -36 19 -32 30 9 30 31 0 36 3 42 30 7 38 16 38 30 0z m-1017 -19
c9 -33 17 -42 48 -52 l37 -13 -28 -10 c-26 -10 -28 -13 -21 -50 l7 -41 -27 32
c-23 27 -32 31 -57 26 -30 -6 -33 -1 -20 32 6 14 2 28 -16 49 -27 32 -25 43 5
27 31 -16 39 -14 46 14 9 34 13 32 26 -14z m1624 -47 c6 -24 10 -26 44 -19
l37 7 -28 -30 c-24 -25 -26 -32 -17 -56 14 -37 14 -36 -21 -24 -26 9 -33 7
-53 -11 -31 -29 -36 -26 -25 11 5 17 8 32 6 33 -1 1 -13 8 -27 15 l-25 13 35
12 c26 8 37 19 45 43 11 39 21 41 29 6z m-1183 -112 c38 -6 45 -20 15 -33 -15
-7 -25 -17 -23 -23 23 -60 18 -70 -19 -35 -18 17 -26 19 -42 10 -35 -19 -42
-14 -30 20 9 27 7 33 -17 59 l-27 28 35 -8 c34 -7 37 -6 47 24 l12 31 12 -35
c9 -25 20 -36 37 -38z m821 6 l33 4 -26 -29 c-22 -23 -25 -32 -18 -52 12 -31
7 -34 -25 -20 -23 11 -29 9 -52 -12 l-26 -24 6 41 c7 37 5 41 -21 54 l-28 14
34 5 c33 6 42 15 56 56 7 18 9 17 20 -10 11 -26 17 -30 47 -27z m-451 -8 c10
-26 16 -30 47 -30 l37 -1 -29 -23 c-26 -22 -28 -26 -18 -56 6 -17 8 -30 4 -28
-4 2 -19 10 -34 17 -25 13 -30 12 -48 -4 -25 -23 -33 -15 -20 19 9 24 6 30
-18 51 l-27 24 37 1 c32 0 37 3 43 30 4 17 9 30 11 30 3 0 10 -13 15 -30z"/>
<path d="M3745 2459 c-294 -29 -576 -97 -1339 -325 -574 -172 -873 -231 -1221
-241 -375 -11 -673 51 -977 203 -59 30 -110 54 -113 54 -3 0 -4 -55 -3 -122
l3 -123 122 -61 c298 -150 603 -213 973 -201 377 12 638 69 1470 317 655 196
988 260 1347 260 341 0 618 -63 907 -206 59 -30 110 -54 112 -54 2 0 4 56 4
123 l0 124 -137 65 c-212 101 -388 153 -616 183 -127 16 -381 18 -532 4z"/>
<path d="M3835 1960 c-332 -24 -615 -88 -1355 -310 -699 -209 -984 -264 -1365
-263 -358 0 -625 61 -917 208 l-108 54 0 -124 0 -125 108 -54 c297 -149 562
-209 917 -209 385 0 654 54 1445 288 791 234 1060 288 1445 288 355 0 620 -60
918 -209 l107 -54 0 125 0 125 -102 51 c-329 165 -704 237 -1093 209z"/>
<path d="M3766 1449 c-317 -33 -578 -94 -1219 -285 -794 -237 -1080 -291
-1492 -281 -230 5 -350 23 -530 76 -118 35 -276 99 -362 147 -34 19 -64 34
-67 34 -3 0 -6 -57 -6 -126 l0 -125 134 -65 c452 -217 918 -254 1541 -123 199
42 360 85 775 209 720 214 950 265 1316 291 373 27 737 -42 1052 -200 l123
-61 -3 127 -3 126 -60 33 c-161 90 -388 167 -601 205 -137 24 -452 34 -598 18z"/>
</g>
</svg>
