<?xml version="1.0" standalone="no"?>
<!DOCTYPE svg PUBLIC "-//W3C//DTD SVG 20010904//EN"
 "http://www.w3.org/TR/2001/REC-SVG-20010904/DTD/svg10.dtd">
<svg version="1.0" xmlns="http://www.w3.org/2000/svg"
 width="30px" height="30px" viewBox="0 0 512.000000 512.000000"
 preserveAspectRatio="xMidYMid meet">

<g transform="translate(0.000000,512.000000) scale(0.100000,-0.100000)"
fill="#000000" stroke="none">
<path d="M3831 4489 c-331 -25 -592 -83 -1266 -284 -447 -133 -630 -182 -835
-224 -601 -123 -1076 -80 -1515 135 -60 30 -113 54 -117 54 -4 0 -8 -248 -8
-550 l0 -550 122 -60 c149 -72 321 -130 488 -165 106 -23 159 -28 348 -32 433
-11 687 38 1557 297 187 56 399 117 470 135 614 162 1047 185 1465 76 131 -34
311 -104 418 -162 l72 -40 0 556 0 555 -97 49 c-339 169 -712 240 -1102 210z"/>
<path d="M3740 2299 c-291 -30 -590 -102 -1250 -299 -672 -202 -1018 -270
-1373 -270 -329 0 -637 69 -908 206 l-109 54 2 -552 3 -553 102 -52 c190 -95
404 -160 627 -189 165 -22 518 -14 696 15 302 49 496 98 1090 276 521 156 751
211 1040 252 172 24 534 24 675 0 218 -38 442 -111 613 -202 l82 -44 0 553 0
553 -137 65 c-214 102 -424 163 -645 187 -113 13 -385 12 -508 0z"/>
</g>
</svg>
