<?xml version="1.0" standalone="no"?>
<!DOCTYPE svg PUBLIC "-//W3C//DTD SVG 20010904//EN"
 "http://www.w3.org/TR/2001/REC-SVG-20010904/DTD/svg10.dtd">
<svg version="1.0" xmlns="http://www.w3.org/2000/svg"
 width="30px" height="30px" viewBox="0 0 512.000000 512.000000"
 preserveAspectRatio="xMidYMid meet">

<g transform="translate(0.000000,512.000000) scale(0.100000,-0.100000)"
fill="#000000" stroke="none">
<path d="M10 4901 l0 -217 150 -29 c83 -16 155 -32 161 -36 8 -4 13 -98 17
-283 l5 -276 137 0 137 0 6 -202 c4 -112 7 -296 7 -410 l0 -208 -145 0 -145 0
0 -165 0 -165 138 0 139 0 6 -172 c9 -225 9 -1570 0 -1901 l-6 -257 -79 0 -78
0 0 -290 0 -290 540 0 540 0 0 290 0 290 -80 0 -80 0 0 1165 0 1165 1180 0
1180 0 0 -1165 0 -1165 -80 0 -80 0 0 -290 0 -290 540 0 540 0 0 290 0 290
-78 0 -79 0 -6 257 c-9 331 -9 1676 0 1901 l6 172 139 0 138 0 0 165 0 165
-145 0 -145 0 0 208 c0 114 3 298 7 410 l6 202 137 0 137 0 5 276 c4 185 9
279 17 283 6 4 78 20 161 36 l150 29 0 217 c0 202 -1 217 -17 213 -498 -107
-1121 -189 -1788 -236 -242 -17 -1248 -17 -1490 0 -667 47 -1290 129 -1787
236 -17 4 -18 -11 -18 -213z m2250 -1251 l0 -410 -440 0 -440 0 0 410 0 410
440 0 440 0 0 -410z m1480 0 l0 -410 -440 0 -440 0 0 410 0 410 440 0 440 0 0
-410z"/>
</g>
</svg>
